<?xml version="1.0" encoding="UTF-8" standalone="no"?>
<!-- Created with Inkscape (http://www.inkscape.org/) -->

<svg
   xmlns:dc="http://purl.org/dc/elements/1.1/"
   xmlns:cc="http://creativecommons.org/ns#"
   xmlns:rdf="http://www.w3.org/1999/02/22-rdf-syntax-ns#"
   xmlns:svg="http://www.w3.org/2000/svg"
   xmlns="http://www.w3.org/2000/svg"
   xmlns:xlink="http://www.w3.org/1999/xlink"
   xmlns:sodipodi="http://sodipodi.sourceforge.net/DTD/sodipodi-0.dtd"
   xmlns:inkscape="http://www.inkscape.org/namespaces/inkscape"
   width="210mm"
   height="297mm"
   viewBox="0 0 744.09448819 1052.3622047"
   id="svg2"
   version="1.1"
   inkscape:version="0.91 r13725"
   sodipodi:docname="logo.svg">
  <defs
     id="defs4" />
  <sodipodi:namedview
     id="base"
     pagecolor="#ffffff"
     bordercolor="#666666"
     borderopacity="1.0"
     inkscape:pageopacity="0.0"
     inkscape:pageshadow="2"
     inkscape:zoom="1.6738162"
     inkscape:cx="395.63263"
     inkscape:cy="800.19043"
     inkscape:document-units="px"
     inkscape:current-layer="layer3"
     showgrid="false"
     showguides="false"
     inkscape:window-width="1280"
     inkscape:window-height="737"
     inkscape:window-x="-8"
     inkscape:window-y="-8"
     inkscape:window-maximized="1" />
  <metadata
     id="metadata7">
    <rdf:RDF>
      <cc:Work
         rdf:about="">
        <dc:format>image/svg+xml</dc:format>
        <dc:type
           rdf:resource="http://purl.org/dc/dcmitype/StillImage" />
        <dc:title></dc:title>
      </cc:Work>
    </rdf:RDF>
  </metadata>
  <g
     inkscape:groupmode="layer"
     id="layer3"
     inkscape:label="svg"
     style="display:inline">
    <circle
       style="fill:none;stroke:#000000;stroke-width:1.04523027;stroke-opacity:1"
       id="path3371"
       cx="378.64288"
       cy="289.71936"
       r="181.04881" />
    <circle
       style="fill:none;stroke:#000000;stroke-opacity:1"
       id="path3373"
       cx="377.85715"
       cy="290.21936"
       r="170.71428" />
    <path
       style="fill:none;fill-rule:evenodd;stroke:none;stroke-width:1px;stroke-linecap:butt;stroke-linejoin:miter;stroke-opacity:1"
       d="m 263.25912,241.40313 c 118.50218,-168.647027 240.42879,0.88373 240.42879,0.88373"
       id="path3379"
       inkscape:connector-curvature="0"
       sodipodi:nodetypes="cc" />
    <flowRoot
       xml:space="preserve"
       id="flowRoot3381"
       style="font-style:normal;font-weight:normal;font-size:60px;line-height:125%;font-family:sans-serif;letter-spacing:0px;word-spacing:0px;fill:#000000;fill-opacity:1;stroke:none;stroke-width:1px;stroke-linecap:butt;stroke-linejoin:miter;stroke-opacity:1;"><flowRegion
         id="flowRegion3383"><rect
           id="rect3385"
           width="277.28687"
           height="94.449265"
           x="272.23611"
           y="154.84167"
           style="font-size:60px;" /></flowRegion><flowPara
         id="flowPara3387" /></flowRoot>    <text
       xml:space="preserve"
       style="font-style:normal;font-weight:normal;font-size:60px;line-height:125%;font-family:sans-serif;letter-spacing:0px;word-spacing:0px;fill:#000000;fill-opacity:1;stroke:none;stroke-width:1px;stroke-linecap:butt;stroke-linejoin:miter;stroke-opacity:1;"
       x="293.95438"
       y="275.04984"
       id="text3389"
       sodipodi:linespacing="125%"><tspan
         sodipodi:role="line"
         id="tspan3391"
         x="293.95438"
         y="275.04984" /></text>
    <text
       xml:space="preserve"
       style="font-style:normal;font-variant:normal;font-weight:bold;font-stretch:normal;font-size:50px;line-height:132.00000525%;font-family:sans-serif;-inkscape-font-specification:'sans-serif Bold';text-align:center;letter-spacing:0.33000001px;word-spacing:0px;text-anchor:middle;fill:#000000;fill-opacity:1;stroke:#000000;stroke-width:1px;stroke-linecap:butt;stroke-linejoin:miter;stroke-opacity:1"
       id="text3393"
       sodipodi:linespacing="132.00001%"
       x="141.31024"
       y="0"><textPath
         xlink:href="#path3379"
         id="textPath4218"
         style="font-style:normal;font-variant:normal;font-weight:bold;font-stretch:normal;font-size:60px;line-height:132.00000525%;font-family:monospace;-inkscape-font-specification:'monospace Bold';text-align:center;letter-spacing:0.33000001px;text-anchor:middle;stroke:#000000;stroke-opacity:1"
         rotate="0 0 0 0 0 0 0 0 1 0">        Netizens</textPath></text>
    <path
       style="fill:none;fill-rule:evenodd;stroke:#000000;stroke-width:1px;stroke-linecap:butt;stroke-linejoin:miter;stroke-opacity:1"
       d="m 514.65106,360.20748 c -10.36761,-5.78765 -13.5705,-10.93552 -17.90854,-16.08848 0,0 -9.76381,0.50507 -9.34391,10.73287 15.90989,7.44987 15.02601,14.52094 15.02601,14.52094 l 0,0 c 2.77792,-11.23794 12.22644,-9.16533 12.22644,-9.16533 z"
       id="path4254"
       inkscape:connector-curvature="0"
       sodipodi:nodetypes="cccccc" />
    <path
       style="fill:none;fill-rule:evenodd;stroke:#000000;stroke-width:1px;stroke-linecap:butt;stroke-linejoin:miter;stroke-opacity:1"
       d="m 514.28571,360.04078 c 3.21429,2.85714 -6.07142,14.28571 -6.07142,14.28571 C 384.28572,529.14792 257.14286,387.3622 257.14286,387.3622"
       id="path4264"
       inkscape:connector-curvature="0"
       sodipodi:nodetypes="ccc" />
    <path
       style="fill:none;fill-rule:evenodd;stroke:#000000;stroke-width:1px;stroke-linecap:butt;stroke-linejoin:miter;stroke-opacity:1"
       d="m 253.42202,374.54985 c 5.80838,-14.64722 16.28871,-12.62691 16.28871,-12.62691 0,-12.37437 -8.83883,-10.48033 -8.83883,-10.48033 -6.9448,12.6269 -17.04633,12.6269 -17.04633,12.6269 14.14214,1.51523 9.59645,10.48034 9.59645,10.48034 z"
       id="path4268"
       inkscape:connector-curvature="0" />
    <path
       style="fill:none;fill-rule:evenodd;stroke:#000000;stroke-width:1.00825691px;stroke-linecap:butt;stroke-linejoin:miter;stroke-opacity:1"
       d="m 244.23248,364.19927 c -6.80526,0.7574 13.35371,23.60529 13.35371,23.60529"
       id="path4270"
       inkscape:connector-curvature="0" />
    <path
       style="fill:none;fill-rule:evenodd;stroke:#000000;stroke-width:1px;stroke-linecap:butt;stroke-linejoin:miter;stroke-opacity:1"
       d="m 266.42857,362.3622 c 125.71428,139.28572 225,-5 225,-5"
       id="path4272"
       inkscape:connector-curvature="0"
       sodipodi:nodetypes="cc" />
    <flowRoot
       xml:space="preserve"
       id="flowRoot4274"
       style="font-style:normal;font-variant:normal;font-weight:bold;font-stretch:normal;font-size:22.5px;line-height:125%;font-family:monospace;-inkscape-font-specification:'monospace Bold';letter-spacing:0px;word-spacing:0px;fill:#000000;fill-opacity:1;stroke:none;stroke-width:1px;stroke-linecap:butt;stroke-linejoin:miter;stroke-opacity:1"
       transform="translate(4.0406102,0)"><flowRegion
         id="flowRegion4276"><rect
           id="rect4278"
           width="116.16756"
           height="57.578686"
           x="317.69299"
           y="335.1539"
           style="font-style:normal;font-variant:normal;font-weight:bold;font-stretch:normal;font-size:22.5px;font-family:monospace;-inkscape-font-specification:'monospace Bold'" /></flowRegion><flowPara
         id="flowPara4280">01010101</flowPara><flowPara
         id="flowPara4282">01001000</flowPara></flowRoot>    <path
       style="fill:none;fill-rule:evenodd;stroke:#000000;stroke-width:1px;stroke-linecap:butt;stroke-linejoin:miter;stroke-opacity:1"
       d="m 439.6689,353.58918 -10.60661,-15.15229 -3.65946,-90.03684 9.67907,-9.25662 0.33982,-40.06628 -29.9281,0.46377 0.0826,20.45559 -17.84758,-0.0826 -0.0826,-20.6255 -24.32629,-0.1286 0.0208,20.37296 -17.5588,-0.0875 -0.057,-19.90433 -29.38679,0 0.59744,40.15356 8.5863,9.09137 -3.53554,89.90358 -10.35406,15.15229 0,39.90102 128.03684,0.50508 z"
       id="path4295"
       inkscape:connector-curvature="0"
       sodipodi:nodetypes="ccccccccccccccccccccc" />
    <path
       style="fill:none;fill-rule:evenodd;stroke:#000000;stroke-width:1px;stroke-linecap:butt;stroke-linejoin:miter;stroke-opacity:1"
       d="m 393.70696,257.87723 c 0,0 -3.01819,-4.84441 1.65377,-8.50621 0,0 -23.75086,5.60202 -26.65505,-15.61119 0,0 -0.12627,5.93465 8.5863,10.60661 l 0.63134,-4.04061 c 0,0 2.65165,13.25825 17.93021,4.92449 0,0 -4.16688,-0.88388 -7.32361,-4.16688 0,0 -12.50063,0.50507 -15.27856,-15.02602 7.32361,16.41498 15.65737,12.12183 15.65737,12.12183 l 0.50508,-6.06091 2.0203,7.57614 c 1.76777,3.78808 7.20815,3.37536 7.20815,3.37536 l 7.3128,-7.92104 c -1.01016,5.05076 -4.54569,7.82868 -4.54569,7.82868 l -2.85551,4.28919 8.15881,-2.26889 -4.69505,3.74334 c 1.99867,2.89047 3.71339,3.63186 3.71339,3.63186 7.32361,0.3788 8.30527,2.47379 8.30527,2.47379 -0.88389,2.90419 -4.79823,3.40927 -4.79823,3.40927 -8.08122,2.52538 -4.54569,8.20748 -4.54569,8.20748 4.29315,7.07107 -0.12626,15.90991 -0.12626,15.90991 l -4.79823,8.83883 c 5.68211,12.2481 -0.63134,20.70813 -0.63134,20.70813 l -6.31346,6.43972 -0.75761,-3.6618 1.13642,-0.50508 0,-2.0203 1.01015,0.12627 2.52538,-1.89404 0.25254,-8.08122 -2.14657,-3.53554 2.14657,-0.12626 c 0,0 0.40571,-2.8765 -1.26269,-2.14658 -8.08122,3.53553 -10.35406,21.97082 -10.35406,21.97082 l -0.12627,5.05076 1.76777,5.05076 1.89402,4.5457 -3.91433,-0.37882 -3.40927,-8.46002 -1.13641,-22.72844 c -10.60661,5.68211 -15.27856,-1.64149 -15.27856,-1.64149 l -5.55585,17.42513 c 2.14658,7.19733 7.70242,13.51079 7.70242,13.51079 l -3.78807,0.25254 -7.95495,-13.25826 c -0.12627,-0.63134 -2.52538,-10.85914 -2.52538,-10.85914 l -4.54569,3.78808 -1.6415,8.9651 c -5.80838,9.97526 -9.72272,10.22779 -9.72272,10.22779 l 0,-4.29314 c 8.83884,-8.46003 5.68211,-8.71257 5.68211,-8.71257 l 1.51523,-10.85914 2.65165,-8.5863 c -5.42957,-18.81409 15.02602,-17.67767 15.02602,-17.67767 l 14.64721,-1.01015 c 3.40926,-0.25253 7.70241,-3.15673 7.70241,-3.15673 4.03991,-3.76062 10.89233,-11.77323 9.34392,-17.80393 z"
       id="path4297"
       inkscape:connector-curvature="0"
       sodipodi:nodetypes="cccccccccccccccccccccccccccccccccscccccccccccccccccccccccc" />
    <path
       style="fill:none;fill-rule:evenodd;stroke:#000000;stroke-width:1px;stroke-linecap:butt;stroke-linejoin:miter;stroke-opacity:1"
       d="M 394.59084,249.92228 Z"
       id="path4299"
       inkscape:connector-curvature="0" />
    <ellipse
       style="fill:#000000;stroke:none;stroke-opacity:1"
       id="path4311"
       cx="400.71487"
       cy="254.34169"
       rx="1.0732871"
       ry="1.1364216" />
    <path
       style="fill:none;fill-rule:evenodd;stroke:none;stroke-width:1px;stroke-linecap:butt;stroke-linejoin:miter;stroke-opacity:1"
       d="m 247.97925,367.87792 c 143.63364,169.82565 263.18752,-5.49188 263.18752,-5.49188"
       id="path4325"
       inkscape:connector-curvature="0"
       sodipodi:nodetypes="cc" />
    <text
       xml:space="preserve"
       style="font-style:normal;font-weight:normal;font-size:22.5px;line-height:125.99999905%;font-family:sans-serif;text-align:start;letter-spacing:1.84000003px;word-spacing:0px;text-anchor:start;fill:#000000;fill-opacity:1;stroke:none;stroke-width:1px;stroke-linecap:butt;stroke-linejoin:miter;stroke-opacity:1"
       id="text4327"
       sodipodi:linespacing="126%"
       x="47.604935"
       y="0"
       transform="matrix(0.99967218,-0.02560322,0.02560322,0.99967218,-10.313627,7.3393666)"><textPath
         xlink:href="#path4325"
         id="textPath4333"
         style="font-size:20px"><tspan
           id="tspan4331"
           style="font-style:normal;font-variant:normal;font-weight:bold;font-stretch:normal;font-size:20px;line-height:125.99999905%;font-family:'Script MT Bold';-inkscape-font-specification:'Script MT Bold, Bold';text-align:start;letter-spacing:1.84000003px;text-anchor:start"
           y="301.09357"
           x="365.84247">         Semper  Vigilantem</tspan></textPath></text>
  </g>
</svg>
